<?xml version="1.0" encoding="UTF-8"?>
<!DOCTYPE svg PUBLIC "-//W3C//DTD SVG 1.1//EN" "http://www.w3.org/Graphics/SVG/1.1/DTD/svg11.dtd">
<svg xmlns="http://www.w3.org/2000/svg" version="1.1" width="680px" height="634px" style="shape-rendering:geometricPrecision; text-rendering:geometricPrecision; image-rendering:optimizeQuality; fill-rule:evenodd; clip-rule:evenodd" xmlns:xlink="http://www.w3.org/1999/xlink">
<g><path style="opacity:1" fill="#a7b3be" d="M -0.5,-0.5 C 226.167,-0.5 452.833,-0.5 679.5,-0.5C 679.5,39.5 679.5,79.5 679.5,119.5C 658.361,77.8749 625.694,49.0416 581.5,33C 553.165,24.1106 524.165,18.7772 494.5,17C 391.167,13.6667 287.833,13.6667 184.5,17C 150.843,18.9153 118.176,25.582 86.5,37C 47.1877,53.8169 18.1877,81.3169 -0.5,119.5C -0.5,79.5 -0.5,39.5 -0.5,-0.5 Z"/></g>
<g><path style="opacity:1" fill="#a3afba" d="M 679.5,119.5 C 679.5,133.167 679.5,146.833 679.5,160.5C 667.054,110.883 638.054,74.3831 592.5,51C 568.89,41.7951 544.557,35.4618 519.5,32C 499.201,30.1754 478.867,28.842 458.5,28C 379.167,27.3333 299.833,27.3333 220.5,28C 200.133,28.842 179.799,30.1754 159.5,32C 134.443,35.4618 110.11,41.7951 86.5,51C 40.9462,74.3831 11.9462,110.883 -0.5,160.5C -0.5,146.833 -0.5,133.167 -0.5,119.5C 18.1877,81.3169 47.1877,53.8169 86.5,37C 118.176,25.582 150.843,18.9153 184.5,17C 287.833,13.6667 391.167,13.6667 494.5,17C 524.165,18.7772 553.165,24.1106 581.5,33C 625.694,49.0416 658.361,77.8749 679.5,119.5 Z"/></g>
<g><path style="opacity:1" fill="#9fabb5" d="M 679.5,160.5 C 679.5,318.167 679.5,475.833 679.5,633.5C 652.5,633.5 625.5,633.5 598.5,633.5C 611.899,625.021 623.399,614.354 633,601.5C 651.573,575.469 662.906,546.469 667,514.5C 671.841,461.95 673.675,409.283 672.5,356.5C 673.675,303.717 671.841,251.05 667,198.5C 662.502,161.858 648.502,129.524 625,101.5C 617.871,94.1953 610.038,87.862 601.5,82.5C 599.84,79.3738 597.174,77.7072 593.5,77.5C 573.366,64.8414 551.366,57.0081 527.5,54C 504.978,50.3912 482.311,48.3912 459.5,48C 379.5,46 299.5,46 219.5,48C 185.962,48.3172 152.962,52.6505 120.5,61C 107.986,64.926 96.3195,70.426 85.5,77.5C 81.8206,77.667 79.154,79.3337 77.5,82.5C 61.8307,92.0028 49.3307,104.67 40,120.5C 25.1356,144.42 15.8022,170.42 12,198.5C 7.15873,251.05 5.3254,303.717 6.5,356.5C 5.3254,409.283 7.15873,461.95 12,514.5C 16.5976,555.187 33.0976,590.02 61.5,619C 67.7337,624.08 74.067,628.914 80.5,633.5C 53.5,633.5 26.5,633.5 -0.5,633.5C -0.5,475.833 -0.5,318.167 -0.5,160.5C 11.9462,110.883 40.9462,74.3831 86.5,51C 110.11,41.7951 134.443,35.4618 159.5,32C 179.799,30.1754 200.133,28.842 220.5,28C 299.833,27.3333 379.167,27.3333 458.5,28C 478.867,28.842 499.201,30.1754 519.5,32C 544.557,35.4618 568.89,41.7951 592.5,51C 638.054,74.3831 667.054,110.883 679.5,160.5 Z"/></g>
<g><path style="opacity:1" fill="#9aa5af" d="M 593.5,77.5 C 581.5,77.5 569.5,77.5 557.5,77.5C 536.548,70.2248 514.881,65.7248 492.5,64C 479.508,63.1822 466.508,62.5155 453.5,62C 377.5,61.3333 301.5,61.3333 225.5,62C 200.627,62.1885 175.96,64.5218 151.5,69C 141.119,70.9247 131.119,73.7581 121.5,77.5C 109.5,77.5 97.5,77.5 85.5,77.5C 96.3195,70.426 107.986,64.926 120.5,61C 152.962,52.6505 185.962,48.3172 219.5,48C 299.5,46 379.5,46 459.5,48C 482.311,48.3912 504.978,50.3912 527.5,54C 551.366,57.0081 573.366,64.8414 593.5,77.5 Z"/></g>
<g><path style="opacity:1" fill="#939ea8" d="M 557.5,77.5 C 412.167,77.5 266.833,77.5 121.5,77.5C 131.119,73.7581 141.119,70.9247 151.5,69C 175.96,64.5218 200.627,62.1885 225.5,62C 301.5,61.3333 377.5,61.3333 453.5,62C 466.508,62.5155 479.508,63.1822 492.5,64C 514.881,65.7248 536.548,70.2248 557.5,77.5 Z"/></g>
<g><path style="opacity:1" fill="#1e1e1e" d="M 85.5,77.5 C 97.5,77.5 109.5,77.5 121.5,77.5C 266.833,77.5 412.167,77.5 557.5,77.5C 569.5,77.5 581.5,77.5 593.5,77.5C 597.174,77.7072 599.84,79.3738 601.5,82.5C 601.5,88.8333 601.5,95.1667 601.5,101.5C 601.5,109.5 601.5,117.5 601.5,125.5C 601.5,132.5 601.5,139.5 601.5,146.5C 601.5,155.5 601.5,164.5 601.5,173.5C 601.5,295.5 601.5,417.5 601.5,539.5C 601.79,543.936 601.29,548.27 600,552.5C 598.157,554.171 595.991,555.171 593.5,555.5C 588.5,555.5 583.5,555.5 578.5,555.5C 573.5,555.5 568.5,555.5 563.5,555.5C 555.5,555.5 547.5,555.5 539.5,555.5C 532.5,555.5 525.5,555.5 518.5,555.5C 399.167,555.5 279.833,555.5 160.5,555.5C 153.5,555.5 146.5,555.5 139.5,555.5C 131.5,555.5 123.5,555.5 115.5,555.5C 110.5,555.5 105.5,555.5 100.5,555.5C 95.5,555.5 90.5,555.5 85.5,555.5C 82.9009,555.451 80.7342,554.451 79,552.5C 77.7101,548.27 77.2101,543.936 77.5,539.5C 77.5,417.5 77.5,295.5 77.5,173.5C 77.5,164.5 77.5,155.5 77.5,146.5C 77.5,139.5 77.5,132.5 77.5,125.5C 77.5,117.5 77.5,109.5 77.5,101.5C 77.5,95.1667 77.5,88.8333 77.5,82.5C 79.154,79.3337 81.8206,77.667 85.5,77.5 Z"/></g>
<g><path style="opacity:1" fill="#9aa5af" d="M 77.5,82.5 C 77.5,88.8333 77.5,95.1667 77.5,101.5C 58.788,117.906 45.288,137.906 37,161.5C 26.6027,194.673 21.6027,228.673 22,263.5C 21.0932,334.176 21.4266,404.843 23,475.5C 23.9397,510.257 31.9397,543.257 47,574.5C 62.488,601.828 84.6547,621.495 113.5,633.5C 102.5,633.5 91.5,633.5 80.5,633.5C 74.067,628.914 67.7337,624.08 61.5,619C 33.0976,590.02 16.5976,555.187 12,514.5C 7.15873,461.95 5.3254,409.283 6.5,356.5C 5.3254,303.717 7.15873,251.05 12,198.5C 15.8022,170.42 25.1356,144.42 40,120.5C 49.3307,104.67 61.8307,92.0028 77.5,82.5 Z"/></g>
<g><path style="opacity:1" fill="#9aa5af" d="M 601.5,82.5 C 610.038,87.862 617.871,94.1953 625,101.5C 648.502,129.524 662.502,161.858 667,198.5C 671.841,251.05 673.675,303.717 672.5,356.5C 673.675,409.283 671.841,461.95 667,514.5C 662.906,546.469 651.573,575.469 633,601.5C 623.399,614.354 611.899,625.021 598.5,633.5C 587.5,633.5 576.5,633.5 565.5,633.5C 612.476,611.645 640.642,574.978 650,523.5C 652.984,507.625 654.984,491.625 656,475.5C 658,396.167 658,316.833 656,237.5C 655.06,202.743 647.06,169.743 632,138.5C 623.857,124.521 613.69,112.188 601.5,101.5C 601.5,95.1667 601.5,88.8333 601.5,82.5 Z"/></g>
<g><path style="opacity:1" fill="#939ea8" d="M 77.5,101.5 C 77.5,109.5 77.5,117.5 77.5,125.5C 62.7062,141.072 52.5395,159.405 47,180.5C 40.7671,206.464 37.4338,232.797 37,259.5C 36.3333,324.167 36.3333,388.833 37,453.5C 37.4891,481.59 41.1558,509.257 48,536.5C 62.1667,581.333 91.6667,610.833 136.5,625C 150.526,628.388 164.526,631.222 178.5,633.5C 156.833,633.5 135.167,633.5 113.5,633.5C 84.6547,621.495 62.488,601.828 47,574.5C 31.9397,543.257 23.9397,510.257 23,475.5C 21.4266,404.843 21.0932,334.176 22,263.5C 21.6027,228.673 26.6027,194.673 37,161.5C 45.288,137.906 58.788,117.906 77.5,101.5 Z"/></g>
<g><path style="opacity:1" fill="#939ea8" d="M 601.5,101.5 C 613.69,112.188 623.857,124.521 632,138.5C 647.06,169.743 655.06,202.743 656,237.5C 658,316.833 658,396.167 656,475.5C 654.984,491.625 652.984,507.625 650,523.5C 640.642,574.978 612.476,611.645 565.5,633.5C 543.833,633.5 522.167,633.5 500.5,633.5C 587.293,623.717 633.793,575.051 640,487.5C 640.866,476.179 641.533,464.845 642,453.5C 642.667,388.833 642.667,324.167 642,259.5C 641.834,225.503 636.167,192.503 625,160.5C 619.621,147.042 611.788,135.376 601.5,125.5C 601.5,117.5 601.5,109.5 601.5,101.5 Z"/></g>
<g><path style="opacity:1" fill="#f95d58" d="M 123.5,117.5 C 137.983,116.482 144.483,123.149 143,137.5C 136.999,147.709 128.832,149.876 118.5,144C 110.584,133.299 112.25,124.466 123.5,117.5 Z"/></g>
<g><path style="opacity:1" fill="#f9ba2d" d="M 173.5,117.5 C 189.317,116.823 195.484,124.157 192,139.5C 185.545,148.037 177.712,149.537 168.5,144C 160.527,133.25 162.194,124.416 173.5,117.5 Z"/></g>
<g><path style="opacity:1" fill="#29c643" d="M 223.5,117.5 C 239.333,116.868 245.5,124.202 242,139.5C 235.545,148.037 227.712,149.537 218.5,144C 210.527,133.25 212.194,124.416 223.5,117.5 Z"/></g>
<g><path style="opacity:1" fill="#8d98a1" d="M 77.5,125.5 C 77.5,132.5 77.5,139.5 77.5,146.5C 66.2026,164.204 58.7026,183.537 55,204.5C 50.2381,234.309 47.9048,264.309 48,294.5C 47.3333,335.833 47.3333,377.167 48,418.5C 47.7552,451.807 50.7552,484.807 57,517.5C 71.4701,577.297 109.303,611.13 170.5,619C 182.451,620.772 194.451,622.106 206.5,623C 295.167,626.333 383.833,626.333 472.5,623C 492.771,621.771 512.771,618.771 532.5,614C 581.338,599.494 611.172,567.327 622,517.5C 628.245,484.807 631.245,451.807 631,418.5C 631.801,364.826 631.468,311.159 630,257.5C 628.922,230.283 624.588,203.616 617,177.5C 612.856,166.51 607.689,156.177 601.5,146.5C 601.5,139.5 601.5,132.5 601.5,125.5C 611.788,135.376 619.621,147.042 625,160.5C 636.167,192.503 641.834,225.503 642,259.5C 642.667,324.167 642.667,388.833 642,453.5C 641.533,464.845 640.866,476.179 640,487.5C 633.793,575.051 587.293,623.717 500.5,633.5C 393.167,633.5 285.833,633.5 178.5,633.5C 164.526,631.222 150.526,628.388 136.5,625C 91.6667,610.833 62.1667,581.333 48,536.5C 41.1558,509.257 37.4891,481.59 37,453.5C 36.3333,388.833 36.3333,324.167 37,259.5C 37.4338,232.797 40.7671,206.464 47,180.5C 52.5395,159.405 62.7062,141.072 77.5,125.5 Z"/></g>
<g><path style="opacity:1" fill="#87929b" d="M 77.5,146.5 C 77.5,155.5 77.5,164.5 77.5,173.5C 68.4275,194.799 63.2609,217.132 62,240.5C 60.0298,279.136 59.1965,317.803 59.5,356.5C 59.1965,395.197 60.0298,433.864 62,472.5C 63.2609,495.868 68.4275,518.201 77.5,539.5C 77.2101,543.936 77.7101,548.27 79,552.5C 80.7342,554.451 82.9009,555.451 85.5,555.5C 102.603,580.402 125.936,596.568 155.5,604C 174.564,608.622 193.897,611.288 213.5,612C 255.489,613.096 297.489,613.596 339.5,613.5C 381.511,613.596 423.511,613.096 465.5,612C 493.45,611.287 520.45,605.954 546.5,596C 565.755,586.572 581.421,573.072 593.5,555.5C 595.991,555.171 598.157,554.171 600,552.5C 601.29,548.27 601.79,543.936 601.5,539.5C 610.572,518.201 615.739,495.868 617,472.5C 618.97,433.864 619.804,395.197 619.5,356.5C 619.804,317.803 618.97,279.136 617,240.5C 615.739,217.132 610.572,194.799 601.5,173.5C 601.5,164.5 601.5,155.5 601.5,146.5C 607.689,156.177 612.856,166.51 617,177.5C 624.588,203.616 628.922,230.283 630,257.5C 631.468,311.159 631.801,364.826 631,418.5C 631.245,451.807 628.245,484.807 622,517.5C 611.172,567.327 581.338,599.494 532.5,614C 512.771,618.771 492.771,621.771 472.5,623C 383.833,626.333 295.167,626.333 206.5,623C 194.451,622.106 182.451,620.772 170.5,619C 109.303,611.13 71.4701,577.297 57,517.5C 50.7552,484.807 47.7552,451.807 48,418.5C 47.3333,377.167 47.3333,335.833 48,294.5C 47.9048,264.309 50.2381,234.309 55,204.5C 58.7026,183.537 66.2026,164.204 77.5,146.5 Z"/></g>
<g><path style="opacity:1" fill="#818b93" d="M 77.5,173.5 C 77.5,295.5 77.5,417.5 77.5,539.5C 68.4275,518.201 63.2609,495.868 62,472.5C 60.0298,433.864 59.1965,395.197 59.5,356.5C 59.1965,317.803 60.0298,279.136 62,240.5C 63.2609,217.132 68.4275,194.799 77.5,173.5 Z"/></g>
<g><path style="opacity:1" fill="#ae46cf" d="M 171.5,186.5 C 172.978,186.238 174.311,186.571 175.5,187.5C 174.68,189.111 173.346,189.778 171.5,189.5C 171.5,188.5 171.5,187.5 171.5,186.5 Z"/></g>
<g><path style="opacity:1" fill="#05cfb1" d="M 295.5,185.5 C 297.912,185.694 298.912,187.027 298.5,189.5C 297.167,189.5 295.833,189.5 294.5,189.5C 294.433,188.041 294.766,186.708 295.5,185.5 Z"/></g>
<g><path style="opacity:1" fill="#0ac4a8" d="M 429.5,186.5 C 432.167,186.5 434.833,186.5 437.5,186.5C 437.5,192.167 437.5,197.833 437.5,203.5C 438.978,203.238 440.311,203.571 441.5,204.5C 437.5,205.833 433.5,205.833 429.5,204.5C 430.689,203.571 432.022,203.238 433.5,203.5C 433.5,198.5 433.5,193.5 433.5,188.5C 431.517,188.843 430.183,188.176 429.5,186.5 Z"/></g>
<g><path style="opacity:1" fill="#05cfb1" d="M 449.5,185.5 C 451.912,185.694 452.912,187.027 452.5,189.5C 451.167,189.5 449.833,189.5 448.5,189.5C 448.433,188.041 448.766,186.708 449.5,185.5 Z"/></g>
<g><path style="opacity:1" fill="#818b93" d="M 601.5,173.5 C 610.572,194.799 615.739,217.132 617,240.5C 618.97,279.136 619.804,317.803 619.5,356.5C 619.804,395.197 618.97,433.864 617,472.5C 615.739,495.868 610.572,518.201 601.5,539.5C 601.5,417.5 601.5,295.5 601.5,173.5 Z"/></g>
<g><path style="opacity:1" fill="#7b7b7b" d="M 120.5,187.5 C 121.5,187.5 122.5,187.5 123.5,187.5C 123.5,192.833 123.5,198.167 123.5,203.5C 124.978,203.238 126.311,203.571 127.5,204.5C 123.833,205.833 120.167,205.833 116.5,204.5C 117.689,203.571 119.022,203.238 120.5,203.5C 120.666,199.154 120.499,194.821 120,190.5C 118.517,192.119 117.35,192.286 116.5,191C 117.686,189.588 119.019,188.421 120.5,187.5 Z"/></g>
<g><path style="opacity:1" fill="#c14be6" d="M 247.5,187.5 C 249.176,188.183 249.843,189.517 249.5,191.5C 257.5,192.167 257.5,192.833 249.5,193.5C 249.335,196.518 249.502,199.518 250,202.5C 251.825,203.103 253.659,203.77 255.5,204.5C 252.718,205.952 250.218,205.619 248,203.5C 247.502,200.183 247.335,196.85 247.5,193.5C 242.167,192.833 242.167,192.167 247.5,191.5C 247.5,190.167 247.5,188.833 247.5,187.5 Z"/></g>
<g><path style="opacity:1" fill="#05d3b5" d="M 277.5,187.5 C 278.5,187.5 279.5,187.5 280.5,187.5C 280.5,188.833 280.5,190.167 280.5,191.5C 289.833,192.167 289.833,192.833 280.5,193.5C 280.335,196.518 280.502,199.518 281,202.5C 283.147,203.113 285.314,203.779 287.5,204.5C 278.172,206.831 274.839,203.165 277.5,193.5C 272.167,192.833 272.167,192.167 277.5,191.5C 277.5,190.167 277.5,188.833 277.5,187.5 Z"/></g>
<g><path style="opacity:1" fill="#b448d6" d="M 358.5,186.5 C 365.569,186.743 365.903,187.577 359.5,189C 358.62,190.356 358.286,191.856 358.5,193.5C 366.5,194.167 366.5,194.833 358.5,195.5C 358.5,198.833 358.5,202.167 358.5,205.5C 357.5,205.5 356.5,205.5 355.5,205.5C 355.5,202.167 355.5,198.833 355.5,195.5C 350.167,194.833 350.167,194.167 355.5,193.5C 355.166,190.509 356.166,188.176 358.5,186.5 Z"/></g>
<g><path style="opacity:1" fill="#c24be7" d="M 168.5,191.5 C 170.5,191.5 172.5,191.5 174.5,191.5C 174.5,195.5 174.5,199.5 174.5,203.5C 175.978,203.238 177.311,203.571 178.5,204.5C 174.833,205.833 171.167,205.833 167.5,204.5C 169.045,203.548 170.712,203.215 172.5,203.5C 172.5,200.167 172.5,196.833 172.5,193.5C 170.517,193.843 169.183,193.176 168.5,191.5 Z"/></g>
<g><path style="opacity:1" fill="#a443c2" d="M 181.5,191.5 C 185.755,191.729 190.088,191.896 194.5,192C 195.467,196.401 195.8,200.901 195.5,205.5C 194.5,205.5 193.5,205.5 192.5,205.5C 192.706,189.938 191.372,189.938 188.5,205.5C 187.833,201.5 187.167,197.5 186.5,193.5C 186.167,193.833 185.833,194.167 185.5,194.5C 184.574,198.094 184.241,201.76 184.5,205.5C 183.5,205.5 182.5,205.5 181.5,205.5C 181.5,200.833 181.5,196.167 181.5,191.5 Z"/></g>
<g><path style="opacity:1" fill="#ae46ce" d="M 229.5,191.5 C 232.758,192.068 236.091,192.234 239.5,192C 241.037,193.11 241.703,194.61 241.5,196.5C 239.641,196.539 238.308,195.706 237.5,194C 235.633,193.289 234.133,193.789 233,195.5C 232.502,198.817 232.335,202.15 232.5,205.5C 231.5,205.5 230.5,205.5 229.5,205.5C 229.5,200.833 229.5,196.167 229.5,191.5 Z"/></g>
<g><path style="opacity:1" fill="#02daba" d="M 291.5,191.5 C 293.833,191.5 296.167,191.5 298.5,191.5C 298.5,195.5 298.5,199.5 298.5,203.5C 299.978,203.238 301.311,203.571 302.5,204.5C 298.5,205.833 294.5,205.833 290.5,204.5C 292.045,203.548 293.712,203.215 295.5,203.5C 295.5,200.167 295.5,196.833 295.5,193.5C 293.517,193.843 292.183,193.176 291.5,191.5 Z"/></g>
<g><path style="opacity:1" fill="#b047d0" d="M 368.5,191.5 C 371.458,192.356 374.458,192.523 377.5,192C 379.497,193.153 379.83,194.653 378.5,196.5C 376.74,193.074 374.574,192.741 372,195.5C 371.502,198.817 371.335,202.15 371.5,205.5C 370.5,205.5 369.5,205.5 368.5,205.5C 368.5,200.833 368.5,196.167 368.5,191.5 Z"/></g>
<g><path style="opacity:1" fill="#b447d5" d="M 385.5,191.5 C 392.799,190.371 395.965,193.371 395,200.5C 391.819,206.252 387.819,206.919 383,202.5C 381.812,198.259 382.645,194.592 385.5,191.5 Z"/></g>
<g><path style="opacity:1" fill="#b247d3" d="M 397.5,191.5 C 401.733,191.533 405.899,191.866 410,192.5C 410.828,196.871 410.661,201.205 409.5,205.5C 408.259,189.731 406.593,189.731 404.5,205.5C 403.833,201.5 403.167,197.5 402.5,193.5C 401.914,193.709 401.414,194.043 401,194.5C 400.501,198.152 400.335,201.818 400.5,205.5C 399.5,205.5 398.5,205.5 397.5,205.5C 397.5,200.833 397.5,196.167 397.5,191.5 Z"/></g>
<g><path style="opacity:1" fill="#02daba" d="M 445.5,191.5 C 447.833,191.5 450.167,191.5 452.5,191.5C 452.5,195.5 452.5,199.5 452.5,203.5C 453.978,203.238 455.311,203.571 456.5,204.5C 452.5,205.833 448.5,205.833 444.5,204.5C 446.045,203.548 447.712,203.215 449.5,203.5C 449.5,200.167 449.5,196.833 449.5,193.5C 447.517,193.843 446.183,193.176 445.5,191.5 Z"/></g>
<g><path style="opacity:1" fill="#05ccaf" d="M 304.5,191.5 C 308.84,191.502 313.173,191.668 317.5,192C 318.467,196.401 318.8,200.901 318.5,205.5C 317.5,205.5 316.5,205.5 315.5,205.5C 315.302,189.696 314.636,189.696 313.5,205.5C 312.5,205.5 311.5,205.5 310.5,205.5C 310.824,201.445 310.491,197.445 309.5,193.5C 308.808,194.025 308.308,194.692 308,195.5C 307.502,198.817 307.335,202.15 307.5,205.5C 306.5,205.5 305.5,205.5 304.5,205.5C 304.5,200.833 304.5,196.167 304.5,191.5 Z"/></g>
<g><path style="opacity:1" fill="#05d3b4" d="M 324.5,191.5 C 330.675,190.677 333.675,193.344 333.5,199.5C 330.5,199.5 327.5,199.5 324.5,199.5C 324.33,200.822 324.663,201.989 325.5,203C 327.936,202.947 330.269,203.113 332.5,203.5C 324.012,207.864 320.179,205.198 321,195.5C 321.69,193.65 322.856,192.316 324.5,191.5 Z"/></g>
<g><path style="opacity:1" fill="#05d3b4" d="M 478.5,191.5 C 484.675,190.677 487.675,193.344 487.5,199.5C 484.5,199.5 481.5,199.5 478.5,199.5C 478.33,200.822 478.663,201.989 479.5,203C 481.936,202.947 484.269,203.113 486.5,203.5C 478.012,207.864 474.179,205.198 475,195.5C 475.69,193.65 476.856,192.316 478.5,191.5 Z"/></g>
<g><path style="opacity:1" fill="#b849da" d="M 198.5,191.5 C 199.75,191.577 200.583,192.244 201,193.5C 204.294,190.689 207.294,191.022 210,194.5C 211.942,202.627 208.775,206.294 200.5,205.5C 200.785,207.288 200.452,208.955 199.5,210.5C 198.504,204.202 198.17,197.868 198.5,191.5 Z"/></g>
<g><path style="opacity:1" fill="#1f2927" d="M 325.5,193.5 C 328.95,192.756 330.616,194.09 330.5,197.5C 328.5,197.5 326.5,197.5 324.5,197.5C 324.433,196.041 324.766,194.708 325.5,193.5 Z"/></g>
<g><path style="opacity:1" fill="#252027" d="M 386.5,193.5 C 391.989,193.504 393.822,196.171 392,201.5C 389.16,204.371 386.826,204.037 385,200.5C 384.167,197.829 384.667,195.496 386.5,193.5 Z"/></g>
<g><path style="opacity:1" fill="#1f2927" d="M 479.5,193.5 C 482.95,192.756 484.616,194.09 484.5,197.5C 482.5,197.5 480.5,197.5 478.5,197.5C 478.433,196.041 478.766,194.708 479.5,193.5 Z"/></g>
<g><path style="opacity:1" fill="#272129" d="M 203.5,193.5 C 204.822,193.33 205.989,193.663 207,194.5C 209.164,200.82 206.997,203.82 200.5,203.5C 199.976,199.572 200.976,196.239 203.5,193.5 Z"/></g>
<g><path style="opacity:1" fill="#08c8ac" d="M 458.5,191.5 C 459.978,191.238 461.311,191.571 462.5,192.5C 463.383,195.325 464.55,197.992 466,200.5C 466.803,197.756 467.803,195.089 469,192.5C 470.049,191.483 471.216,191.316 472.5,192C 471.073,196.221 469.573,200.387 468,204.5C 466.644,205.38 465.144,205.714 463.5,205.5C 461.834,200.834 460.168,196.167 458.5,191.5 Z"/></g>
<g><path style="opacity:1" fill="#b848da" d="M 216.5,191.5 C 225.041,190.592 227.874,194.259 225,202.5C 221.287,206.487 217.62,206.487 214,202.5C 212.812,198.259 213.645,194.592 216.5,191.5 Z"/></g>
<g><path style="opacity:1" fill="#262027" d="M 217.5,193.5 C 222.989,193.504 224.822,196.171 223,201.5C 220.667,204.167 218.333,204.167 216,201.5C 215.109,198.502 215.609,195.836 217.5,193.5 Z"/></g>
<g><path style="opacity:1" fill="#cd8516" d="M 187.5,223.5 C 189.912,223.694 190.912,225.027 190.5,227.5C 189.167,227.5 187.833,227.5 186.5,227.5C 186.433,226.041 186.766,224.708 187.5,223.5 Z"/></g>
<g><path style="opacity:1" fill="#f0d967" d="M 291.5,224.5 C 293.833,224.5 296.167,224.5 298.5,224.5C 298.5,230.167 298.5,235.833 298.5,241.5C 299.978,241.238 301.311,241.571 302.5,242.5C 298.5,243.833 294.5,243.833 290.5,242.5C 292.045,241.548 293.712,241.215 295.5,241.5C 295.5,236.5 295.5,231.5 295.5,226.5C 293.517,226.843 292.183,226.176 291.5,224.5 Z"/></g>
<g><path style="opacity:1" fill="#ec9812" d="M 170.5,225.5 C 172.176,226.183 172.843,227.517 172.5,229.5C 180.5,230.167 180.5,230.833 172.5,231.5C 172.335,234.518 172.502,237.518 173,240.5C 174.825,241.103 176.659,241.77 178.5,242.5C 176.172,243.724 173.839,243.724 171.5,242.5C 170.511,238.893 170.177,235.226 170.5,231.5C 165.167,230.833 165.167,230.167 170.5,229.5C 170.5,228.167 170.5,226.833 170.5,225.5 Z"/></g>
<g><path style="opacity:1" fill="#e19113" d="M 183.5,229.5 C 185.833,229.5 188.167,229.5 190.5,229.5C 190.5,233.5 190.5,237.5 190.5,241.5C 191.978,241.238 193.311,241.571 194.5,242.5C 190.833,243.833 187.167,243.833 183.5,242.5C 184.689,241.571 186.022,241.238 187.5,241.5C 187.5,238.167 187.5,234.833 187.5,231.5C 185.517,231.843 184.183,231.176 183.5,229.5 Z"/></g>
<g><path style="opacity:1" fill="#cf8715" d="M 197.5,229.5 C 201.675,229.584 205.842,229.917 210,230.5C 210.828,234.871 210.661,239.205 209.5,243.5C 208.833,239.5 208.167,235.5 207.5,231.5C 206.808,232.025 206.308,232.692 206,233.5C 205.502,236.817 205.335,240.15 205.5,243.5C 204.5,243.5 203.5,243.5 202.5,243.5C 202.302,227.696 201.636,227.696 200.5,243.5C 199.5,243.5 198.5,243.5 197.5,243.5C 197.5,238.833 197.5,234.167 197.5,229.5 Z"/></g>
<g><path style="opacity:1" fill="#dcc761" d="M 244.5,224.5 C 245.5,224.5 246.5,224.5 247.5,224.5C 247.338,226.527 247.505,228.527 248,230.5C 250.916,228.987 253.582,229.32 256,231.5C 256.499,235.486 256.666,239.486 256.5,243.5C 255.167,243.5 253.833,243.5 252.5,243.5C 252.5,239.5 252.5,235.5 252.5,231.5C 250.61,231.297 249.11,231.963 248,233.5C 247.502,236.817 247.335,240.15 247.5,243.5C 246.5,243.5 245.5,243.5 244.5,243.5C 244.5,237.167 244.5,230.833 244.5,224.5 Z"/></g>
<g><path style="opacity:1" fill="#e3cd63" d="M 276.5,229.5 C 279.579,229.26 282.579,229.593 285.5,230.5C 286.492,234.783 286.826,239.116 286.5,243.5C 283.15,243.665 279.817,243.498 276.5,243C 274.398,241.267 274.065,239.267 275.5,237C 278.014,235.748 280.68,235.248 283.5,235.5C 283.67,234.178 283.337,233.011 282.5,232C 280.114,232.351 277.781,232.185 275.5,231.5C 275.863,230.817 276.196,230.15 276.5,229.5 Z"/></g>
<g><path style="opacity:1" fill="#e6d064" d="M 262.5,229.5 C 269.013,228.404 272.346,231.071 272.5,237.5C 269.102,237.18 265.768,237.513 262.5,238.5C 263.212,240.046 264.378,241.046 266,241.5C 267.882,240.394 269.716,240.394 271.5,241.5C 262.047,245.849 258.213,242.849 260,232.5C 261.045,231.627 261.878,230.627 262.5,229.5 Z"/></g>
<g><path style="opacity:1" fill="#252420" d="M 264.5,231.5 C 267.5,231.167 268.833,232.5 268.5,235.5C 266.396,235.799 264.396,235.466 262.5,234.5C 263.193,233.482 263.859,232.482 264.5,231.5 Z"/></g>
<g><path style="opacity:1" fill="#dc8e14" d="M 216.5,229.5 C 223.002,228.339 226.002,231.005 225.5,237.5C 222.5,237.5 219.5,237.5 216.5,237.5C 216.33,238.822 216.663,239.989 217.5,241C 220.277,241.051 222.943,241.218 225.5,241.5C 216.35,245.526 212.517,242.526 214,232.5C 215.045,231.627 215.878,230.627 216.5,229.5 Z"/></g>
<g><path style="opacity:1" fill="#24211d" d="M 217.5,231.5 C 220.95,230.756 222.616,232.09 222.5,235.5C 220.5,235.5 218.5,235.5 216.5,235.5C 216.433,234.041 216.766,232.708 217.5,231.5 Z"/></g>
<g><path style="opacity:1" fill="#a7a7a7" d="M 313.5,223.5 C 314.376,223.369 315.043,223.702 315.5,224.5C 313.017,227.8 311.35,231.467 310.5,235.5C 310.952,239.9 312.618,243.733 315.5,247C 315.167,247.5 314.833,248 314.5,248.5C 308.854,243.794 307.021,237.794 309,230.5C 310.012,227.798 311.512,225.465 313.5,223.5 Z"/></g>
<g><path style="opacity:1" fill="#acacac" d="M 323.5,223.5 C 328.253,225.954 330.586,229.954 330.5,235.5C 330.797,240.963 328.797,245.296 324.5,248.5C 324.167,248 323.833,247.5 323.5,247C 326.382,243.733 328.048,239.9 328.5,235.5C 327.343,231.198 325.676,227.198 323.5,223.5 Z"/></g>
<g><path style="opacity:1" fill="#2d2a23" d="M 279.5,237.5 C 280.833,237.5 282.167,237.5 283.5,237.5C 283.254,240.47 281.588,241.803 278.5,241.5C 278.433,240.041 278.766,238.708 279.5,237.5 Z"/></g>
<g><path style="opacity:1" fill="#aaaaaa" d="M 233.5,238.5 C 236.084,239.048 237.084,240.715 236.5,243.5C 235.167,243.5 233.833,243.5 232.5,243.5C 232.366,241.708 232.699,240.042 233.5,238.5 Z"/></g>
<g><path style="opacity:1" fill="#7e7e7e" d="M 118.5,225.5 C 125.503,224.673 128.003,227.673 126,234.5C 123.833,236.667 121.667,238.833 119.5,241C 122.226,241.182 124.893,241.682 127.5,242.5C 123.5,243.833 119.5,243.833 115.5,242.5C 119.086,239.086 122.086,235.252 124.5,231C 122.905,227.08 120.571,226.58 117.5,229.5C 117.167,229 116.833,228.5 116.5,228C 117.056,226.989 117.722,226.156 118.5,225.5 Z"/></g>
<g><path style="opacity:1" fill="#7b7b7b" d="M 117.5,263.5 C 120.602,263.154 123.435,263.821 126,265.5C 126.896,268.025 126.396,270.192 124.5,272C 128.701,275.523 128.368,278.523 123.5,281C 121.098,281.814 118.765,281.647 116.5,280.5C 118.423,279.692 120.423,279.192 122.5,279C 124.497,277.847 124.83,276.347 123.5,274.5C 117.249,273.341 117.083,272.007 123,270.5C 123.857,265.734 122.023,264.401 117.5,266.5C 116.438,265.575 116.438,264.575 117.5,263.5 Z"/></g>
<g><path style="opacity:1" fill="#07c9ad" d="M 312.5,299.5 C 315.166,299.066 316.333,300.066 316,302.5C 312.403,304.066 311.237,303.066 312.5,299.5 Z"/></g>
<g><path style="opacity:1" fill="#7b7b7b" d="M 121.5,301.5 C 122.833,301.5 124.167,301.5 125.5,301.5C 125.5,305.5 125.5,309.5 125.5,313.5C 129.5,314.167 129.5,314.833 125.5,315.5C 124.833,320.833 124.167,320.833 123.5,315.5C 120.5,315.5 117.5,315.5 114.5,315.5C 116.301,310.566 118.634,305.899 121.5,301.5 Z"/></g>
<g><path style="opacity:1" fill="#ae46ce" d="M 231.5,301.5 C 232.5,301.5 233.5,301.5 234.5,301.5C 234.5,302.833 234.5,304.167 234.5,305.5C 242.5,306.167 242.5,306.833 234.5,307.5C 234.335,310.518 234.502,313.518 235,316.5C 236.825,317.103 238.659,317.77 240.5,318.5C 238.235,319.647 235.902,319.814 233.5,319C 231.71,315.417 231.043,311.584 231.5,307.5C 226.167,306.833 226.167,306.167 231.5,305.5C 231.5,304.167 231.5,302.833 231.5,301.5 Z"/></g>
<g><path style="opacity:1" fill="#e75a41" d="M 478.5,301.5 C 480.176,302.183 480.843,303.517 480.5,305.5C 488.5,306.167 488.5,306.833 480.5,307.5C 480.335,310.518 480.502,313.518 481,316.5C 482.825,317.103 484.659,317.77 486.5,318.5C 483.718,319.952 481.218,319.619 479,317.5C 478.502,314.183 478.335,310.85 478.5,307.5C 473.167,306.833 473.167,306.167 478.5,305.5C 478.5,304.167 478.5,302.833 478.5,301.5 Z"/></g>
<g><path style="opacity:1" fill="#04d5b6" d="M 291.5,305.5 C 294.684,305.833 298.018,306 301.5,306C 303.037,307.11 303.703,308.61 303.5,310.5C 301.641,310.539 300.308,309.706 299.5,308C 297.633,307.289 296.133,307.789 295,309.5C 294.502,312.817 294.335,316.15 294.5,319.5C 293.5,319.5 292.5,319.5 291.5,319.5C 291.5,314.833 291.5,310.167 291.5,305.5 Z"/></g>
<g><path style="opacity:1" fill="#04d5b6" d="M 368.5,305.5 C 371.684,305.833 375.018,306 378.5,306C 380.037,307.11 380.703,308.61 380.5,310.5C 378.641,310.539 377.308,309.706 376.5,308C 374.633,307.289 373.133,307.789 372,309.5C 371.502,312.817 371.335,316.15 371.5,319.5C 370.5,319.5 369.5,319.5 368.5,319.5C 368.5,314.833 368.5,310.167 368.5,305.5 Z"/></g>
<g><path style="opacity:1" fill="#de5840" d="M 506.5,305.5 C 508.26,308.701 509.094,312.367 509,316.5C 511.044,317.772 512.878,317.439 514.5,315.5C 515.167,312.167 515.833,308.833 516.5,305.5C 517.833,310.167 517.833,314.833 516.5,319.5C 515.808,318.975 515.308,318.308 515,317.5C 512.333,320.167 509.667,320.167 507,317.5C 506.501,313.514 506.334,309.514 506.5,305.5 Z"/></g>
<g><path style="opacity:1" fill="#a7a7a7" d="M 539.5,299.5 C 548.633,307.528 548.8,315.862 540,324.5C 539.5,324 539,323.5 538.5,323C 545.09,315.635 545.09,308.302 538.5,301C 539.056,300.617 539.389,300.117 539.5,299.5 Z"/></g>
<g><path style="opacity:1" fill="#d0543d" d="M 491.5,305.5 C 494.458,306.356 497.458,306.523 500.5,306C 502.421,307.241 502.754,308.741 501.5,310.5C 499.74,307.074 497.574,306.741 495,309.5C 494.502,312.817 494.335,316.15 494.5,319.5C 493.5,319.5 492.5,319.5 491.5,319.5C 491.5,314.833 491.5,310.167 491.5,305.5 Z"/></g>
<g><path style="opacity:1" fill="#202020" d="M 121.5,306.5 C 122.468,308.607 122.802,310.941 122.5,313.5C 120.801,313.66 119.134,313.494 117.5,313C 119.058,310.948 120.392,308.781 121.5,306.5 Z"/></g>
<g><path style="opacity:1" fill="#ba49dd" d="M 198.5,305.5 C 199.75,305.577 200.583,306.244 201,307.5C 203.667,304.833 206.333,304.833 209,307.5C 209.827,311.541 209.66,315.541 208.5,319.5C 207.675,315.878 207.175,312.211 207,308.5C 204.46,307.124 202.46,307.79 201,310.5C 200.821,313.553 200.321,316.553 199.5,319.5C 198.507,314.88 198.173,310.214 198.5,305.5 Z"/></g>
<g><path style="opacity:1" fill="#b648d8" d="M 216.5,305.5 C 218.924,305.192 221.257,305.526 223.5,306.5C 221.604,307.466 219.604,307.799 217.5,307.5C 217.33,308.822 217.663,309.989 218.5,311C 222.918,311.238 224.751,313.405 224,317.5C 221.108,319.673 217.941,320.006 214.5,318.5C 216.766,317.686 219.1,317.186 221.5,317C 221.957,316.586 222.291,316.086 222.5,315.5C 220.063,314.074 217.563,312.741 215,311.5C 214.252,309.16 214.752,307.16 216.5,305.5 Z"/></g>
<g><path style="opacity:1" fill="#07ccae" d="M 322.5,305.5 C 325.187,305.336 327.854,305.503 330.5,306C 331.308,306.308 331.975,306.808 332.5,307.5C 333.433,311.429 333.766,315.429 333.5,319.5C 329.676,319.326 325.842,318.993 322,318.5C 321.004,312.666 323.504,310.333 329.5,311.5C 329.157,307.562 327.157,306.562 323.5,308.5C 322.614,307.675 322.281,306.675 322.5,305.5 Z"/></g>
<g><path style="opacity:1" fill="#03d6b7" d="M 384.5,305.5 C 388.007,304.994 391.174,305.66 394,307.5C 394.499,311.486 394.666,315.486 394.5,319.5C 391.316,319.167 387.982,319 384.5,319C 382.302,317.33 381.968,315.33 383.5,313C 386.014,311.748 388.68,311.248 391.5,311.5C 391.67,310.178 391.337,309.011 390.5,308C 388.064,308.053 385.731,307.887 383.5,307.5C 383.863,306.817 384.196,306.15 384.5,305.5 Z"/></g>
<g><path style="opacity:1" fill="#ed5d42" d="M 429.5,308.5 C 433.226,308.177 436.893,308.511 440.5,309.5C 438.667,309.833 436.833,310.167 435,310.5C 432.705,310.453 430.871,309.787 429.5,308.5 Z"/></g>
<g><path style="opacity:1" fill="#dc573f" d="M 525.5,305.5 C 531.167,305.167 533.833,307.833 533.5,313.5C 530.5,313.5 527.5,313.5 524.5,313.5C 524.33,314.822 524.663,315.989 525.5,317C 528.097,317.281 530.43,317.448 532.5,317.5C 524.493,321.356 520.993,318.689 522,309.5C 522.69,307.65 523.856,306.316 525.5,305.5 Z"/></g>
<g><path style="opacity:1" fill="#28211f" d="M 525.5,307.5 C 528.278,307.022 530.278,308.022 531.5,310.5C 529.257,311.474 526.924,311.808 524.5,311.5C 524.433,310.041 524.766,308.708 525.5,307.5 Z"/></g>
<g><path style="opacity:1" fill="#af46d0" d="M 171.5,305.5 C 173.527,305.338 175.527,305.505 177.5,306C 177.957,306.414 178.291,306.914 178.5,307.5C 176.657,307.755 174.657,307.922 172.5,308C 169.833,311 169.833,314 172.5,317C 174.235,317.651 175.902,317.485 177.5,316.5C 178.711,317.274 178.711,318.107 177.5,319C 169.667,320.5 166.5,317.333 168,309.5C 169.032,307.973 170.199,306.64 171.5,305.5 Z"/></g>
<g><path style="opacity:1" fill="#04d0b2" d="M 336.5,301.5 C 337.5,301.5 338.5,301.5 339.5,301.5C 339.337,303.857 339.503,306.19 340,308.5C 341.715,306.241 343.548,304.074 345.5,302C 346.635,301.251 347.635,301.417 348.5,302.5C 346.115,304.884 344.115,307.55 342.5,310.5C 344.953,313.241 347.286,316.075 349.5,319C 348.167,319.667 346.833,319.667 345.5,319C 343.667,316.5 341.833,314 340,311.5C 339.503,314.146 339.336,316.813 339.5,319.5C 338.5,319.5 337.5,319.5 336.5,319.5C 336.5,313.5 336.5,307.5 336.5,301.5 Z"/></g>
<g><path style="opacity:1" fill="#a7a7a7" d="M 467.5,299.5 C 468.376,299.369 469.043,299.702 469.5,300.5C 467.017,303.8 465.35,307.467 464.5,311.5C 464.952,315.9 466.618,319.733 469.5,323C 469.167,323.5 468.833,324 468.5,324.5C 462.854,319.794 461.021,313.794 463,306.5C 464.012,303.798 465.512,301.465 467.5,299.5 Z"/></g>
<g><path style="opacity:1" fill="#07c8ac" d="M 260.5,300.5 C 261.5,300.5 262.5,300.5 263.5,300.5C 263.335,303.85 263.502,307.183 264,310.5C 266.002,307.113 268.835,305.613 272.5,306C 270.316,308.016 268.316,310.183 266.5,312.5C 268.316,314.817 270.316,316.984 272.5,319C 268.835,319.387 266.002,317.887 264,314.5C 263.506,316.134 263.34,317.801 263.5,319.5C 262.5,319.5 261.5,319.5 260.5,319.5C 260.5,313.167 260.5,306.833 260.5,300.5 Z"/></g>
<g><path style="opacity:1" fill="#04d5b6" d="M 278.5,305.5 C 284.675,304.677 287.675,307.344 287.5,313.5C 284.5,313.5 281.5,313.5 278.5,313.5C 278.33,314.822 278.663,315.989 279.5,317C 281.936,316.947 284.269,317.113 286.5,317.5C 278.012,321.864 274.179,319.198 275,309.5C 275.69,307.65 276.856,306.316 278.5,305.5 Z"/></g>
<g><path style="opacity:1" fill="#202c29" d="M 279.5,307.5 C 282.588,307.197 284.254,308.53 284.5,311.5C 282.076,311.808 279.743,311.474 277.5,310.5C 278.193,309.482 278.859,308.482 279.5,307.5 Z"/></g>
<g><path style="opacity:1" fill="#04d5b6" d="M 355.5,305.5 C 361.675,304.677 364.675,307.344 364.5,313.5C 361.5,313.5 358.5,313.5 355.5,313.5C 355.33,314.822 355.663,315.989 356.5,317C 358.936,316.947 361.269,317.113 363.5,317.5C 355.012,321.864 351.179,319.198 352,309.5C 352.69,307.65 353.856,306.316 355.5,305.5 Z"/></g>
<g><path style="opacity:1" fill="#202c29" d="M 356.5,307.5 C 359.588,307.197 361.254,308.53 361.5,311.5C 359.076,311.808 356.743,311.474 354.5,310.5C 355.193,309.482 355.859,308.482 356.5,307.5 Z"/></g>
<g><path style="opacity:1" fill="#1f2725" d="M 325.5,313.5 C 326.833,313.5 328.167,313.5 329.5,313.5C 329.254,316.47 327.588,317.803 324.5,317.5C 324.433,316.041 324.766,314.708 325.5,313.5 Z"/></g>
<g><path style="opacity:1" fill="#1f2e2b" d="M 386.5,313.5 C 388.167,313.5 389.833,313.5 391.5,313.5C 391.542,315.849 390.375,317.182 388,317.5C 385.5,316.842 385,315.509 386.5,313.5 Z"/></g>
<g><path style="opacity:1" fill="#ed5d42" d="M 429.5,313.5 C 433.226,313.177 436.893,313.511 440.5,314.5C 438.667,314.833 436.833,315.167 435,315.5C 432.705,315.453 430.871,314.787 429.5,313.5 Z"/></g>
<g><path style="opacity:1" fill="#b848da" d="M 185.5,305.5 C 194.041,304.592 196.874,308.259 194,316.5C 190.287,320.487 186.62,320.487 183,316.5C 181.812,312.259 182.645,308.592 185.5,305.5 Z"/></g>
<g><path style="opacity:1" fill="#262027" d="M 186.5,307.5 C 191.989,307.504 193.822,310.171 192,315.5C 189.667,318.167 187.333,318.167 185,315.5C 184.109,312.502 184.609,309.836 186.5,307.5 Z"/></g>
<g><path style="opacity:1" fill="#06d0b2" d="M 401.5,305.5 C 404.167,305.5 406.833,305.5 409.5,305.5C 409.5,306.5 409.5,307.5 409.5,308.5C 407.194,308.007 404.861,307.674 402.5,307.5C 402.33,308.822 402.663,309.989 403.5,311C 409.462,311.589 410.796,314.256 407.5,319C 404.518,319.498 401.518,319.665 398.5,319.5C 398.281,318.325 398.614,317.325 399.5,316.5C 402.216,318.086 404.55,317.753 406.5,315.5C 404.167,314.167 401.833,312.833 399.5,311.5C 398.021,308.743 398.687,306.743 401.5,305.5 Z"/></g>
<g><path style="opacity:1" fill="#04d1b3" d="M 305.5,305.5 C 308.833,305.5 312.167,305.5 315.5,305.5C 315.808,311.425 315.475,317.259 314.5,323C 311.22,325.129 308.22,324.962 305.5,322.5C 307.602,322.521 309.768,322.187 312,321.5C 312.499,316.845 312.666,312.179 312.5,307.5C 309.612,308.01 307.279,307.344 305.5,305.5 Z"/></g>
<g><path style="opacity:1" fill="#7a7a7a" d="M 116.5,339.5 C 119.898,339.18 123.232,339.513 126.5,340.5C 124.257,341.474 121.924,341.808 119.5,341.5C 119.5,343.167 119.5,344.833 119.5,346.5C 126.745,346.555 128.745,349.722 125.5,356C 122.577,357.632 119.577,357.799 116.5,356.5C 118.423,355.692 120.423,355.192 122.5,355C 125.033,352.916 125.033,350.916 122.5,349C 120.527,348.505 118.527,348.338 116.5,348.5C 116.5,345.5 116.5,342.5 116.5,339.5 Z"/></g>
<g><path style="opacity:1" fill="#0bbca1" d="M 171.5,337.5 C 174.166,337.066 175.333,338.066 175,340.5C 171.403,342.066 170.237,341.066 171.5,337.5 Z"/></g>
<g><path style="opacity:1" fill="#09c8ab" d="M 167.5,343.5 C 170.167,343.5 172.833,343.5 175.5,343.5C 175.5,347.5 175.5,351.5 175.5,355.5C 176.978,355.238 178.311,355.571 179.5,356.5C 175.5,357.833 171.5,357.833 167.5,356.5C 168.689,355.571 170.022,355.238 171.5,355.5C 171.5,352.167 171.5,348.833 171.5,345.5C 169.517,345.843 168.183,345.176 167.5,343.5 Z"/></g>
<g><path style="opacity:1" fill="#04d0b2" d="M 182.5,343.5 C 185.684,343.833 189.018,344 192.5,344C 193,344.5 193.5,345 194,345.5C 194.499,349.486 194.666,353.486 194.5,357.5C 193.5,357.5 192.5,357.5 191.5,357.5C 191.665,353.818 191.499,350.152 191,346.5C 189.221,345.521 187.555,345.854 186,347.5C 185.502,350.817 185.335,354.15 185.5,357.5C 184.5,357.5 183.5,357.5 182.5,357.5C 182.5,352.833 182.5,348.167 182.5,343.5 Z"/></g>
<g><path style="opacity:1" fill="#04d2b3" d="M 213.5,343.5 C 214.5,343.5 215.5,343.5 216.5,343.5C 216.335,347.182 216.501,350.848 217,354.5C 218.779,355.479 220.445,355.146 222,353.5C 222.498,350.183 222.665,346.85 222.5,343.5C 223.5,343.5 224.5,343.5 225.5,343.5C 225.5,348.167 225.5,352.833 225.5,357.5C 222.316,357.167 218.982,357 215.5,357C 215,356.5 214.5,356 214,355.5C 213.501,351.514 213.334,347.514 213.5,343.5 Z"/></g>
<g><path style="opacity:1" fill="#04d2b4" d="M 305.5,343.5 C 306.5,343.5 307.5,343.5 308.5,343.5C 308.335,347.182 308.501,350.848 309,354.5C 310.938,355.86 312.604,355.527 314,353.5C 314.498,350.183 314.665,346.85 314.5,343.5C 315.5,343.5 316.5,343.5 317.5,343.5C 317.5,348.167 317.5,352.833 317.5,357.5C 314.316,357.167 310.982,357 307.5,357C 307,356.5 306.5,356 306,355.5C 305.501,351.514 305.334,347.514 305.5,343.5 Z"/></g>
<g><path style="opacity:1" fill="#e65a41" d="M 259.5,346.5 C 263.555,346.176 267.555,346.509 271.5,347.5C 269.5,347.833 267.5,348.167 265.5,348.5C 263.048,348.461 261.048,347.794 259.5,346.5 Z"/></g>
<g><path style="opacity:1" fill="#05d0b2" d="M 198.5,343.5 C 201.356,343.928 204.356,344.095 207.5,344C 211.434,348.216 211.434,352.55 207.5,357C 205.527,357.495 203.527,357.662 201.5,357.5C 201.5,359.167 201.5,360.833 201.5,362.5C 200.5,362.5 199.5,362.5 198.5,362.5C 198.5,356.167 198.5,349.833 198.5,343.5 Z"/></g>
<g><path style="opacity:1" fill="#1e2423" d="M 203.5,345.5 C 204.822,345.33 205.989,345.663 207,346.5C 208.638,351.923 206.805,354.923 201.5,355.5C 201.034,351.838 201.701,348.505 203.5,345.5 Z"/></g>
<g><path style="opacity:1" fill="#04d5b6" d="M 355.5,343.5 C 361.675,342.677 364.675,345.344 364.5,351.5C 361.5,351.5 358.5,351.5 355.5,351.5C 355.33,352.822 355.663,353.989 356.5,355C 358.936,354.947 361.269,355.113 363.5,355.5C 355.012,359.864 351.179,357.198 352,347.5C 352.69,345.65 353.856,344.316 355.5,343.5 Z"/></g>
<g><path style="opacity:1" fill="#202c29" d="M 356.5,345.5 C 359.588,345.197 361.254,346.53 361.5,349.5C 359.076,349.808 356.743,349.474 354.5,348.5C 355.193,347.482 355.859,346.482 356.5,345.5 Z"/></g>
<g><path style="opacity:1" fill="#05d0b2" d="M 321.5,338.5 C 322.5,338.5 323.5,338.5 324.5,338.5C 324.335,342.182 324.501,345.848 325,349.5C 326.621,345.509 329.454,343.676 333.5,344C 331.443,345.719 329.776,347.719 328.5,350C 329.961,352.298 331.628,354.465 333.5,356.5C 332.167,357.833 330.833,357.833 329.5,356.5C 325.589,349.826 323.923,350.16 324.5,357.5C 323.5,357.5 322.5,357.5 321.5,357.5C 321.5,351.167 321.5,344.833 321.5,338.5 Z"/></g>
<g><path style="opacity:1" fill="#e65a41" d="M 259.5,351.5 C 263.555,351.176 267.555,351.509 271.5,352.5C 269.5,352.833 267.5,353.167 265.5,353.5C 263.048,353.461 261.048,352.794 259.5,351.5 Z"/></g>
<g><path style="opacity:1" fill="#03d3b4" d="M 231.5,339.5 C 232.5,339.5 233.5,339.5 234.5,339.5C 234.5,340.833 234.5,342.167 234.5,343.5C 242.5,344.167 242.5,344.833 234.5,345.5C 234.335,348.518 234.502,351.518 235,354.5C 236.825,355.103 238.659,355.77 240.5,356.5C 237.388,357.983 234.555,357.65 232,355.5C 231.502,352.183 231.335,348.85 231.5,345.5C 226.167,344.833 226.167,344.167 231.5,343.5C 231.5,342.167 231.5,340.833 231.5,339.5 Z"/></g>
<g><path style="opacity:1" fill="#09c7ab" d="M 293.5,343.5 C 296.167,343.5 298.833,343.5 301.5,343.5C 301.5,344.5 301.5,345.5 301.5,346.5C 299.94,346.481 298.44,346.148 297,345.5C 295.72,345.613 294.887,346.28 294.5,347.5C 296.937,348.926 299.437,350.259 302,351.5C 303.033,354.217 302.2,356.051 299.5,357C 296.518,357.498 293.518,357.665 290.5,357.5C 290.5,356.5 290.5,355.5 290.5,354.5C 293.127,355.092 295.794,355.425 298.5,355.5C 298.719,354.325 298.386,353.325 297.5,352.5C 291.481,351.363 290.148,348.363 293.5,343.5 Z"/></g>
<g><path style="opacity:1" fill="#09c7ab" d="M 339.5,343.5 C 342.167,343.5 344.833,343.5 347.5,343.5C 347.5,344.5 347.5,345.5 347.5,346.5C 345.94,346.481 344.44,346.148 343,345.5C 341.72,345.613 340.887,346.28 340.5,347.5C 342.937,348.926 345.437,350.259 348,351.5C 349.033,354.217 348.2,356.051 345.5,357C 342.518,357.498 339.518,357.665 336.5,357.5C 336.5,356.5 336.5,355.5 336.5,354.5C 339.127,355.092 341.794,355.425 344.5,355.5C 344.719,354.325 344.386,353.325 343.5,352.5C 337.481,351.363 336.148,348.363 339.5,343.5 Z"/></g>
<g><path style="opacity:1" fill="#09c7ab" d="M 370.5,343.5 C 373.167,343.5 375.833,343.5 378.5,343.5C 378.5,344.5 378.5,345.5 378.5,346.5C 376.94,346.481 375.44,346.148 374,345.5C 372.72,345.613 371.887,346.28 371.5,347.5C 373.937,348.926 376.437,350.259 379,351.5C 380.033,354.217 379.2,356.051 376.5,357C 373.518,357.498 370.518,357.665 367.5,357.5C 367.5,356.5 367.5,355.5 367.5,354.5C 370.127,355.092 372.794,355.425 375.5,355.5C 375.719,354.325 375.386,353.325 374.5,352.5C 368.481,351.363 367.148,348.363 370.5,343.5 Z"/></g>
<g><path style="opacity:1" fill="#7a7a7a" d="M 120.5,377.5 C 127.569,377.743 127.903,378.577 121.5,380C 119.203,381.263 118.37,383.097 119,385.5C 123.686,383.357 126.853,384.69 128.5,389.5C 127.991,393.592 125.658,395.592 121.5,395.5C 116.965,394.631 114.965,391.797 115.5,387C 115.65,383.021 117.317,379.854 120.5,377.5 Z"/></g>
<g><path style="opacity:1" fill="#242424" d="M 119.5,386.5 C 124.895,385.555 126.561,387.555 124.5,392.5C 118.74,394.212 117.074,392.212 119.5,386.5 Z"/></g>
<g><path style="opacity:1" fill="#ae46cf" d="M 171.5,414.5 C 172.978,414.238 174.311,414.571 175.5,415.5C 174.68,417.111 173.346,417.778 171.5,417.5C 171.5,416.5 171.5,415.5 171.5,414.5 Z"/></g>
<g><path style="opacity:1" fill="#05cdb0" d="M 282.5,413.5 C 284.912,413.694 285.912,415.027 285.5,417.5C 284.167,417.5 282.833,417.5 281.5,417.5C 281.433,416.041 281.766,414.708 282.5,413.5 Z"/></g>
<g><path style="opacity:1" fill="#d5553e" d="M 460.5,414.5 C 462.833,414.5 465.167,414.5 467.5,414.5C 467.5,420.167 467.5,425.833 467.5,431.5C 468.978,431.238 470.311,431.571 471.5,432.5C 467.833,433.833 464.167,433.833 460.5,432.5C 461.689,431.571 463.022,431.238 464.5,431.5C 464.5,426.5 464.5,421.5 464.5,416.5C 462.517,416.843 461.183,416.176 460.5,414.5 Z"/></g>
<g><path style="opacity:1" fill="#be4ae3" d="M 188.5,414.5 C 196.886,414.772 197.22,415.606 189.5,417C 188.62,418.356 188.286,419.856 188.5,421.5C 196.5,422.167 196.5,422.833 188.5,423.5C 187.833,436.833 187.167,436.833 186.5,423.5C 179.833,422.833 179.833,422.167 186.5,421.5C 186.166,418.812 186.832,416.479 188.5,414.5 Z"/></g>
<g><path style="opacity:1" fill="#d7563e" d="M 435.5,414.5 C 442.569,414.743 442.903,415.577 436.5,417C 435.62,418.356 435.286,419.856 435.5,421.5C 443.5,422.167 443.5,422.833 435.5,423.5C 435.5,426.833 435.5,430.167 435.5,433.5C 434.5,433.5 433.5,433.5 432.5,433.5C 432.5,430.167 432.5,426.833 432.5,423.5C 427.167,422.833 427.167,422.167 432.5,421.5C 432.166,418.509 433.166,416.176 435.5,414.5 Z"/></g>
<g><path style="opacity:1" fill="#a1a1a1" d="M 508.5,413.5 C 515.036,417.271 517.202,422.938 515,430.5C 513.719,433.603 511.886,436.269 509.5,438.5C 508.692,438.192 508.025,437.692 507.5,437C 512.152,432.464 513.652,426.964 512,420.5C 510.859,418.391 509.359,416.558 507.5,415C 508.056,414.617 508.389,414.117 508.5,413.5 Z"/></g>
<g><path style="opacity:1" fill="#a2a2a2" d="M 221.5,413.5 C 222.376,413.369 223.043,413.702 223.5,414.5C 216.998,422.063 216.998,429.73 223.5,437.5C 221.671,438.282 220.171,437.616 219,435.5C 213.761,427.418 214.594,420.084 221.5,413.5 Z"/></g>
<g><path style="opacity:1" fill="#a2a2a2" d="M 421.5,413.5 C 422.376,413.369 423.043,413.702 423.5,414.5C 416.998,422.063 416.998,429.73 423.5,437.5C 421.671,438.282 420.171,437.616 419,435.5C 413.761,427.418 414.594,420.084 421.5,413.5 Z"/></g>
<g><path style="opacity:1" fill="#c24be7" d="M 168.5,419.5 C 170.5,419.5 172.5,419.5 174.5,419.5C 174.5,423.5 174.5,427.5 174.5,431.5C 175.978,431.238 177.311,431.571 178.5,432.5C 174.833,433.833 171.167,433.833 167.5,432.5C 169.045,431.548 170.712,431.215 172.5,431.5C 172.5,428.167 172.5,424.833 172.5,421.5C 170.517,421.843 169.183,421.176 168.5,419.5 Z"/></g>
<g><path style="opacity:1" fill="#03d5b6" d="M 260.5,419.5 C 263.684,419.833 267.018,420 270.5,420C 272.037,421.11 272.703,422.61 272.5,424.5C 270.362,424.297 268.695,423.297 267.5,421.5C 266.5,422 265.5,422.5 264.5,423C 263.544,426.394 263.211,429.894 263.5,433.5C 262.5,433.5 261.5,433.5 260.5,433.5C 260.5,428.833 260.5,424.167 260.5,419.5 Z"/></g>
<g><path style="opacity:1" fill="#04d5b6" d="M 337.5,419.5 C 340.684,419.833 344.018,420 347.5,420C 349.037,421.11 349.703,422.61 349.5,424.5C 347.641,424.539 346.308,423.706 345.5,422C 343.633,421.289 342.133,421.789 341,423.5C 340.502,426.817 340.335,430.15 340.5,433.5C 339.5,433.5 338.5,433.5 337.5,433.5C 337.5,428.833 337.5,424.167 337.5,419.5 Z"/></g>
<g><path style="opacity:1" fill="#a7a7a7" d="M 385.5,413.5 C 394.633,421.528 394.8,429.862 386,438.5C 385.5,438 385,437.5 384.5,437C 391.09,429.635 391.09,422.302 384.5,415C 385.056,414.617 385.389,414.117 385.5,413.5 Z"/></g>
<g><path style="opacity:1" fill="#05d3b4" d="M 247.5,419.5 C 253.675,418.677 256.675,421.344 256.5,427.5C 253.5,427.5 250.5,427.5 247.5,427.5C 247.33,428.822 247.663,429.989 248.5,431C 250.936,430.947 253.269,431.113 255.5,431.5C 247.012,435.864 243.179,433.198 244,423.5C 244.69,421.65 245.856,420.316 247.5,419.5 Z"/></g>
<g><path style="opacity:1" fill="#05d3b4" d="M 324.5,419.5 C 330.675,418.677 333.675,421.344 333.5,427.5C 330.5,427.5 327.5,427.5 324.5,427.5C 324.33,428.822 324.663,429.989 325.5,431C 327.936,430.947 330.269,431.113 332.5,431.5C 324.012,435.864 320.179,433.198 321,423.5C 321.69,421.65 322.856,420.316 324.5,419.5 Z"/></g>
<g><path style="opacity:1" fill="#7b7b7b" d="M 115.5,415.5 C 119.5,415.5 123.5,415.5 127.5,415.5C 126.024,421.461 123.691,427.128 120.5,432.5C 119.635,433.583 118.635,433.749 117.5,433C 119.997,427.845 122.33,422.678 124.5,417.5C 120.988,418.055 117.988,417.388 115.5,415.5 Z"/></g>
<g><path style="opacity:1" fill="#1f2927" d="M 248.5,421.5 C 251.95,420.756 253.616,422.09 253.5,425.5C 251.5,425.5 249.5,425.5 247.5,425.5C 247.433,424.041 247.766,422.708 248.5,421.5 Z"/></g>
<g><path style="opacity:1" fill="#0ac3a7" d="M 275.5,419.5 C 278.833,419.5 282.167,419.5 285.5,419.5C 285.666,424.844 285.499,430.177 285,435.5C 281.7,438.999 278.2,439.332 274.5,436.5C 276.602,436.521 278.768,436.187 281,435.5C 281.499,430.845 281.666,426.179 281.5,421.5C 278.918,421.975 276.918,421.308 275.5,419.5 Z"/></g>
<g><path style="opacity:1" fill="#1f2927" d="M 325.5,421.5 C 328.95,420.756 330.616,422.09 330.5,425.5C 328.5,425.5 326.5,425.5 324.5,425.5C 324.433,424.041 324.766,422.708 325.5,421.5 Z"/></g>
<g><path style="opacity:1" fill="#06d0b2" d="M 353.5,419.5 C 360.814,417.494 364.147,420.16 363.5,427.5C 363.167,429.5 362.833,431.5 362.5,433.5C 359.604,433.293 356.604,433.127 353.5,433C 351.485,431.445 351.152,429.611 352.5,427.5C 354.851,425.771 357.518,425.104 360.5,425.5C 360.67,424.178 360.337,423.011 359.5,422C 357.114,422.351 354.781,422.185 352.5,421.5C 352.863,420.817 353.196,420.15 353.5,419.5 Z"/></g>
<g><path style="opacity:1" fill="#05d2b4" d="M 292.5,419.5 C 296.007,418.994 299.174,419.66 302,421.5C 302.499,425.486 302.666,429.486 302.5,433.5C 298.737,433.468 294.904,433.135 291,432.5C 290.181,426.168 293.014,423.835 299.5,425.5C 299.719,424.325 299.386,423.325 298.5,422.5C 296.129,421.987 293.796,421.653 291.5,421.5C 291.863,420.817 292.196,420.15 292.5,419.5 Z"/></g>
<g><path style="opacity:1" fill="#d0543d" d="M 446.5,419.5 C 449.807,419.063 452.807,419.73 455.5,421.5C 456.433,425.429 456.766,429.429 456.5,433.5C 453.991,432.325 451.491,432.325 449,433.5C 444.817,432.914 443.65,430.747 445.5,427C 448.014,425.748 450.68,425.248 453.5,425.5C 453.67,424.178 453.337,423.011 452.5,422C 450.432,421.313 448.432,421.48 446.5,422.5C 445.438,421.575 445.438,420.575 446.5,419.5 Z"/></g>
<g><path style="opacity:1" fill="#dc573f" d="M 494.5,419.5 C 500.167,419.167 502.833,421.833 502.5,427.5C 499.5,427.5 496.5,427.5 493.5,427.5C 493.33,428.822 493.663,429.989 494.5,431C 497.097,431.281 499.43,431.448 501.5,431.5C 493.493,435.356 489.993,432.689 491,423.5C 491.69,421.65 492.856,420.316 494.5,419.5 Z"/></g>
<g><path style="opacity:1" fill="#28211f" d="M 494.5,421.5 C 497.278,421.022 499.278,422.022 500.5,424.5C 498.257,425.474 495.924,425.808 493.5,425.5C 493.433,424.041 493.766,422.708 494.5,421.5 Z"/></g>
<g><path style="opacity:1" fill="#06cdaf" d="M 305.5,415.5 C 306.5,415.5 307.5,415.5 308.5,415.5C 308.337,417.857 308.503,420.19 309,422.5C 310.715,420.241 312.548,418.074 314.5,416C 315.833,415.333 317.167,415.333 318.5,416C 315.794,418.371 313.461,421.037 311.5,424C 313.833,427 316.167,430 318.5,433C 317.167,433.667 315.833,433.667 314.5,433C 312.667,430.5 310.833,428 309,425.5C 308.503,428.146 308.336,430.813 308.5,433.5C 307.5,433.5 306.5,433.5 305.5,433.5C 305.5,427.5 305.5,421.5 305.5,415.5 Z"/></g>
<g><path style="opacity:1" fill="#07c8ac" d="M 229.5,414.5 C 230.5,414.5 231.5,414.5 232.5,414.5C 232.335,417.85 232.502,421.183 233,424.5C 235.002,421.113 237.835,419.613 241.5,420C 239.316,422.016 237.316,424.183 235.5,426.5C 237.316,428.817 239.316,430.984 241.5,433C 237.835,433.387 235.002,431.887 233,428.5C 232.506,430.134 232.34,431.801 232.5,433.5C 231.5,433.5 230.5,433.5 229.5,433.5C 229.5,427.167 229.5,420.833 229.5,414.5 Z"/></g>
<g><path style="opacity:1" fill="#dd5840" d="M 478.5,419.5 C 480.924,419.192 483.257,419.526 485.5,420.5C 476.195,422.31 476.195,424.476 485.5,427C 487.14,429.776 486.473,431.776 483.5,433C 481.098,433.814 478.765,433.647 476.5,432.5C 478.743,431.526 481.076,431.192 483.5,431.5C 483.67,430.178 483.337,429.011 482.5,428C 476.433,427.167 475.1,424.333 478.5,419.5 Z"/></g>
<g><path style="opacity:1" fill="#1e2826" d="M 294.5,427.5 C 300.822,427.484 301.155,428.817 295.5,431.5C 293.358,430.563 293.024,429.23 294.5,427.5 Z"/></g>
<g><path style="opacity:1" fill="#1f2726" d="M 356.5,427.5 C 357.833,427.5 359.167,427.5 360.5,427.5C 360.254,430.47 358.588,431.803 355.5,431.5C 355.433,430.041 355.766,428.708 356.5,427.5 Z"/></g>
<g><path style="opacity:1" fill="#28211f" d="M 448.5,427.5 C 450.167,427.5 451.833,427.5 453.5,427.5C 452.969,430.779 450.969,432.113 447.5,431.5C 447.433,430.041 447.766,428.708 448.5,427.5 Z"/></g>
<g><path style="opacity:1" fill="#09c7ab" d="M 370.5,419.5 C 373.167,419.5 375.833,419.5 378.5,419.5C 378.5,420.5 378.5,421.5 378.5,422.5C 376.94,422.481 375.44,422.148 374,421.5C 372.72,421.613 371.887,422.28 371.5,423.5C 373.937,424.926 376.437,426.259 379,427.5C 380.033,430.217 379.2,432.051 376.5,433C 373.518,433.498 370.518,433.665 367.5,433.5C 367.5,432.5 367.5,431.5 367.5,430.5C 370.127,431.092 372.794,431.425 375.5,431.5C 375.719,430.325 375.386,429.325 374.5,428.5C 368.481,427.363 367.148,424.363 370.5,419.5 Z"/></g>
<g><path style="opacity:1" fill="#05ceb0" d="M 233.5,451.5 C 235.912,451.694 236.912,453.027 236.5,455.5C 235.167,455.5 233.833,455.5 232.5,455.5C 232.433,454.041 232.766,452.708 233.5,451.5 Z"/></g>
<g><path style="opacity:1" fill="#02d9b9" d="M 414.5,452.5 C 416.833,452.5 419.167,452.5 421.5,452.5C 421.5,458.167 421.5,463.833 421.5,469.5C 422.978,469.238 424.311,469.571 425.5,470.5C 421.5,471.833 417.5,471.833 413.5,470.5C 415.045,469.548 416.712,469.215 418.5,469.5C 418.5,464.5 418.5,459.5 418.5,454.5C 416.517,454.843 415.183,454.176 414.5,452.5 Z"/></g>
<g><path style="opacity:1" fill="#797979" d="M 118.5,453.5 C 126.773,452.409 129.106,455.409 125.5,462.5C 129.101,469.751 126.768,472.584 118.5,471C 115.8,470.051 114.967,468.217 116,465.5C 117.022,464.646 117.855,463.646 118.5,462.5C 117.289,461.126 116.289,459.626 115.5,458C 116.315,456.357 117.315,454.857 118.5,453.5 Z"/></g>
<g><path style="opacity:1" fill="#04d6b7" d="M 293.5,453.5 C 294.5,453.5 295.5,453.5 296.5,453.5C 296.5,454.833 296.5,456.167 296.5,457.5C 304.5,458.167 304.5,458.833 296.5,459.5C 296.335,462.518 296.502,465.518 297,468.5C 298.825,469.103 300.659,469.77 302.5,470.5C 299.388,471.983 296.555,471.65 294,469.5C 293.502,466.183 293.335,462.85 293.5,459.5C 288.167,458.833 288.167,458.167 293.5,457.5C 293.5,456.167 293.5,454.833 293.5,453.5 Z"/></g>
<g><path style="opacity:1" fill="#222222" d="M 119.5,455.5 C 124.923,455.603 125.756,457.603 122,461.5C 118.702,460.427 117.868,458.427 119.5,455.5 Z"/></g>
<g><path style="opacity:1" fill="#02dabb" d="M 229.5,457.5 C 231.833,457.5 234.167,457.5 236.5,457.5C 236.5,461.5 236.5,465.5 236.5,469.5C 237.978,469.238 239.311,469.571 240.5,470.5C 236.5,471.833 232.5,471.833 228.5,470.5C 230.045,469.548 231.712,469.215 233.5,469.5C 233.5,466.167 233.5,462.833 233.5,459.5C 231.517,459.843 230.183,459.176 229.5,457.5 Z"/></g>
<g><path style="opacity:1" fill="#08c7ab" d="M 244.5,457.5 C 247.932,457.59 251.432,457.924 255,458.5C 256.367,462.7 256.867,467.033 256.5,471.5C 255.167,471.5 253.833,471.5 252.5,471.5C 252.5,467.5 252.5,463.5 252.5,459.5C 250.61,459.297 249.11,459.963 248,461.5C 247.502,464.817 247.335,468.15 247.5,471.5C 246.5,471.5 245.5,471.5 244.5,471.5C 244.5,466.833 244.5,462.167 244.5,457.5 Z"/></g>
<g><path style="opacity:1" fill="#05cfb1" d="M 259.5,457.5 C 262.684,457.833 266.018,458 269.5,458C 274.897,466.446 272.563,470.946 262.5,471.5C 262.5,473.167 262.5,474.833 262.5,476.5C 261.5,476.5 260.5,476.5 259.5,476.5C 259.5,470.167 259.5,463.833 259.5,457.5 Z"/></g>
<g><path style="opacity:1" fill="#05d2b4" d="M 385.5,457.5 C 388.898,457.18 392.232,457.513 395.5,458.5C 395.03,464.635 391.697,467.635 385.5,467.5C 385.709,468.086 386.043,468.586 386.5,469C 389.224,469.27 391.891,469.77 394.5,470.5C 396.05,473.129 395.384,474.963 392.5,476C 381.85,478.182 378.85,474.348 383.5,464.5C 382.139,461.584 382.805,459.251 385.5,457.5 Z"/></g>
<g><path style="opacity:1" fill="#213631" d="M 386.5,459.5 C 390.138,458.737 391.638,460.07 391,463.5C 386.415,465.413 384.915,464.079 386.5,459.5 Z"/></g>
<g><path style="opacity:1" fill="#07ccae" d="M 399.5,457.5 C 402.187,457.336 404.854,457.503 407.5,458C 408.308,458.308 408.975,458.808 409.5,459.5C 410.433,463.429 410.766,467.429 410.5,471.5C 406.676,471.326 402.842,470.993 399,470.5C 398.004,464.666 400.504,462.333 406.5,463.5C 406.157,459.562 404.157,458.562 400.5,460.5C 399.614,459.675 399.281,458.675 399.5,457.5 Z"/></g>
<g><path style="opacity:1" fill="#1f2826" d="M 265.5,459.5 C 266.496,459.414 267.329,459.748 268,460.5C 268.667,463.167 268.667,465.833 268,468.5C 266.301,469.406 264.467,469.739 262.5,469.5C 262.336,466.813 262.503,464.146 263,461.5C 263.995,460.934 264.828,460.267 265.5,459.5 Z"/></g>
<g><path style="opacity:1" fill="#e45a41" d="M 321.5,460.5 C 325.555,460.176 329.555,460.509 333.5,461.5C 331.5,461.833 329.5,462.167 327.5,462.5C 325.048,462.461 323.048,461.794 321.5,460.5 Z"/></g>
<g><path style="opacity:1" fill="#05d2b4" d="M 369.5,457.5 C 373.007,456.994 376.174,457.66 379,459.5C 379.499,463.486 379.666,467.486 379.5,471.5C 375.737,471.468 371.904,471.135 368,470.5C 367.181,464.168 370.014,461.835 376.5,463.5C 376.719,462.325 376.386,461.325 375.5,460.5C 373.129,459.987 370.796,459.653 368.5,459.5C 368.863,458.817 369.196,458.15 369.5,457.5 Z"/></g>
<g><path style="opacity:1" fill="#222222" d="M 120.5,463.5 C 124.013,464.028 125.013,465.862 123.5,469C 118.289,469.546 117.289,467.713 120.5,463.5 Z"/></g>
<g><path style="opacity:1" fill="#e45a41" d="M 321.5,465.5 C 325.555,465.176 329.555,465.509 333.5,466.5C 331.5,466.833 329.5,467.167 327.5,467.5C 325.048,467.461 323.048,466.794 321.5,465.5 Z"/></g>
<g><path style="opacity:1" fill="#04d3b4" d="M 354.5,457.5 C 358.226,457.177 361.893,457.511 365.5,458.5C 364.047,460.467 363.047,462.633 362.5,465C 359.879,465.939 357.212,466.772 354.5,467.5C 354.709,468.086 355.043,468.586 355.5,469C 358.426,469.218 361.26,469.718 364,470.5C 364.825,472.701 364.325,474.534 362.5,476C 359.5,476.667 356.5,476.667 353.5,476C 352.484,475.481 351.818,474.647 351.5,473.5C 351.6,468.936 352.1,464.269 353,459.5C 353.717,458.956 354.217,458.289 354.5,457.5 Z"/></g>
<g><path style="opacity:1" fill="#1e2423" d="M 356.5,459.5 C 360.161,459.35 361.161,460.85 359.5,464C 355.707,464.487 354.707,462.987 356.5,459.5 Z"/></g>
<g><path style="opacity:1" fill="#1e2826" d="M 371.5,465.5 C 377.822,465.484 378.155,466.817 372.5,469.5C 370.358,468.563 370.024,467.23 371.5,465.5 Z"/></g>
<g><path style="opacity:1" fill="#1f2725" d="M 402.5,465.5 C 403.833,465.5 405.167,465.5 406.5,465.5C 406.254,468.47 404.588,469.803 401.5,469.5C 401.433,468.041 401.766,466.708 402.5,465.5 Z"/></g>
<g><path style="opacity:1" fill="#07caad" d="M 275.5,457.5 C 276.5,457.5 277.5,457.5 278.5,457.5C 278.335,461.182 278.501,464.848 279,468.5C 280.587,469.727 281.921,469.394 283,467.5C 283.498,464.183 283.665,460.85 283.5,457.5C 284.5,457.5 285.5,457.5 286.5,457.5C 286.5,462.167 286.5,466.833 286.5,471.5C 284.29,470.417 282.123,470.417 280,471.5C 278.289,471.561 276.956,470.894 276,469.5C 275.501,465.514 275.334,461.514 275.5,457.5 Z"/></g>
<g><path style="opacity:1" fill="#1e2221" d="M 355.5,471.5 C 357.604,471.201 359.604,471.534 361.5,472.5C 359.393,474.949 357.06,475.116 354.5,473C 355.056,472.617 355.389,472.117 355.5,471.5 Z"/></g>
<g><path style="opacity:1" fill="#1e2624" d="M 385.5,471.5 C 394.833,472.5 394.833,473.5 385.5,474.5C 385.5,473.5 385.5,472.5 385.5,471.5 Z"/></g>
<g><path style="opacity:1" fill="#909196" d="M 422.5,490.5 C 423.5,490.5 424.5,490.5 425.5,490.5C 425.5,496.833 425.5,503.167 425.5,509.5C 423.876,509.64 422.71,508.973 422,507.5C 419.333,510.167 416.667,510.167 414,507.5C 411.348,499.344 414.181,495.344 422.5,495.5C 422.5,493.833 422.5,492.167 422.5,490.5 Z"/></g>
<g><path style="opacity:1" fill="#8e8f94" d="M 213.5,491.5 C 226.637,491.129 229.971,496.629 223.5,508C 220.312,509.316 216.978,509.816 213.5,509.5C 213.5,503.5 213.5,497.5 213.5,491.5 Z"/></g>
<g><path style="opacity:1" fill="#95969b" d="M 306.5,491.5 C 310.226,491.177 313.893,491.511 317.5,492.5C 314.914,493.48 312.247,493.813 309.5,493.5C 309.5,495.5 309.5,497.5 309.5,499.5C 318.833,500.167 318.833,500.833 309.5,501.5C 309.5,504.167 309.5,506.833 309.5,509.5C 308.5,509.5 307.5,509.5 306.5,509.5C 306.5,503.5 306.5,497.5 306.5,491.5 Z"/></g>
<g><path style="opacity:1" fill="#96979c" d="M 383.5,491.5 C 387.226,491.177 390.893,491.511 394.5,492.5C 391.914,493.48 389.247,493.813 386.5,493.5C 386.5,495.5 386.5,497.5 386.5,499.5C 395.833,500.167 395.833,500.833 386.5,501.5C 386.5,503.5 386.5,505.5 386.5,507.5C 389.247,507.187 391.914,507.52 394.5,508.5C 390.893,509.489 387.226,509.823 383.5,509.5C 383.5,503.5 383.5,497.5 383.5,491.5 Z"/></g>
<g><path style="opacity:1" fill="#939499" d="M 443.5,491.5 C 456.527,490.316 460.193,495.65 454.5,507.5C 451.05,509.224 447.383,509.891 443.5,509.5C 443.5,503.5 443.5,497.5 443.5,491.5 Z"/></g>
<g><path style="opacity:1" fill="#929399" d="M 369.5,491.5 C 370.5,491.5 371.5,491.5 372.5,491.5C 372.5,492.833 372.5,494.167 372.5,495.5C 381.833,496.167 381.833,496.833 372.5,497.5C 372.335,500.518 372.502,503.518 373,506.5C 375.147,507.113 377.314,507.779 379.5,508.5C 376.264,509.941 373.264,509.608 370.5,507.5C 369.583,504.242 369.249,500.909 369.5,497.5C 365.5,496.833 365.5,496.167 369.5,495.5C 369.5,494.167 369.5,492.833 369.5,491.5 Z"/></g>
<g><path style="opacity:1" fill="#8d8e93" d="M 191.5,490.5 C 192.497,490.47 193.164,490.97 193.5,492C 190.398,498.698 187.731,505.531 185.5,512.5C 184.325,512.719 183.325,512.386 182.5,511.5C 185.312,504.389 188.312,497.389 191.5,490.5 Z"/></g>
<g><path style="opacity:1" fill="#202020" d="M 216.5,493.5 C 220.919,493.419 223.252,495.586 223.5,500C 223.729,504.937 221.396,507.437 216.5,507.5C 216.5,502.833 216.5,498.167 216.5,493.5 Z"/></g>
<g><path style="opacity:1" fill="#252526" d="M 446.5,493.5 C 454.692,494.471 456.692,498.638 452.5,506C 450.655,507.128 448.655,507.628 446.5,507.5C 446.5,502.833 446.5,498.167 446.5,493.5 Z"/></g>
<g><path style="opacity:1" fill="#919297" d="M 248.5,495.5 C 250.527,495.338 252.527,495.505 254.5,496C 254.957,496.414 255.291,496.914 255.5,497.5C 253.657,497.755 251.657,497.922 249.5,498C 246.833,501 246.833,504 249.5,507C 251.235,507.651 252.902,507.485 254.5,506.5C 255.711,507.274 255.711,508.107 254.5,509C 246.72,510.553 243.553,507.386 245,499.5C 245.69,497.65 246.856,496.316 248.5,495.5 Z"/></g>
<g><path style="opacity:1" fill="#8e8e94" d="M 259.5,490.5 C 260.5,490.5 261.5,490.5 262.5,490.5C 262.201,492.604 262.534,494.604 263.5,496.5C 266.291,494.96 268.791,495.294 271,497.5C 271.499,501.486 271.666,505.486 271.5,509.5C 270.5,509.5 269.5,509.5 268.5,509.5C 268.665,505.818 268.499,502.152 268,498.5C 266.062,497.14 264.396,497.473 263,499.5C 262.502,502.817 262.335,506.15 262.5,509.5C 261.5,509.5 260.5,509.5 259.5,509.5C 259.5,503.167 259.5,496.833 259.5,490.5 Z"/></g>
<g><path style="opacity:1" fill="#8f9095" d="M 278.5,495.5 C 285.825,494.992 288.658,498.326 287,505.5C 283.399,510.321 279.399,510.654 275,506.5C 273.518,501.774 274.685,498.107 278.5,495.5 Z"/></g>
<g><path style="opacity:1" fill="#8e8f94" d="M 321.5,495.5 C 323.124,495.36 324.29,496.027 325,497.5C 326.808,495.604 328.975,495.104 331.5,496C 333.037,497.11 333.703,498.61 333.5,500.5C 332.5,500.5 331.5,500.5 330.5,500.5C 330.5,499.5 330.5,498.5 330.5,497.5C 328.516,497.383 326.85,498.05 325.5,499.5C 324.513,502.768 324.18,506.102 324.5,509.5C 323.5,509.5 322.5,509.5 321.5,509.5C 321.5,504.833 321.5,500.167 321.5,495.5 Z"/></g>
<g><path style="opacity:1" fill="#929399" d="M 398.5,495.5 C 401.739,495.62 405.073,495.953 408.5,496.5C 409.833,500.833 409.833,505.167 408.5,509.5C 407.675,505.878 407.175,502.211 407,498.5C 405.062,497.14 403.396,497.473 402,499.5C 401.502,502.817 401.335,506.15 401.5,509.5C 400.5,509.5 399.5,509.5 398.5,509.5C 398.5,504.833 398.5,500.167 398.5,495.5 Z"/></g>
<g><path style="opacity:1" fill="#8e8f94" d="M 175.5,490.5 C 176.675,490.281 177.675,490.614 178.5,491.5C 175.53,498.78 172.197,505.78 168.5,512.5C 168.167,512 167.833,511.5 167.5,511C 170.602,504.302 173.269,497.469 175.5,490.5 Z"/></g>
<g><path style="opacity:1" fill="#202020" d="M 279.5,497.5 C 284.151,498.174 285.651,500.841 284,505.5C 280.182,508.498 278.016,507.498 277.5,502.5C 277.437,500.486 278.103,498.819 279.5,497.5 Z"/></g>
<g><path style="opacity:1" fill="#8b8c92" d="M 352.5,495.5 C 354.71,496.583 356.877,496.583 359,495.5C 360.711,495.439 362.044,496.106 363,497.5C 363.499,501.486 363.666,505.486 363.5,509.5C 362.5,509.5 361.5,509.5 360.5,509.5C 360.5,505.5 360.5,501.5 360.5,497.5C 358.61,497.297 357.11,497.963 356,499.5C 355.502,502.817 355.335,506.15 355.5,509.5C 354.5,509.5 353.5,509.5 352.5,509.5C 352.5,504.833 352.5,500.167 352.5,495.5 Z"/></g>
<g><path style="opacity:1" fill="#242424" d="M 418.5,497.5 C 419.833,497.5 421.167,497.5 422.5,497.5C 423.268,501.83 421.935,505.163 418.5,507.5C 417.914,507.291 417.414,506.957 417,506.5C 416.094,503.156 416.594,500.156 418.5,497.5 Z"/></g>
<g><path style="opacity:1" fill="#939499" d="M 232.5,495.5 C 238.814,494.641 241.481,497.308 240.5,503.5C 237.428,503.183 234.428,503.516 231.5,504.5C 231.977,505.478 232.643,506.311 233.5,507C 235.936,506.947 238.269,507.113 240.5,507.5C 236.358,510.407 232.524,510.074 229,506.5C 227.663,501.872 228.83,498.205 232.5,495.5 Z"/></g>
<g><path style="opacity:1" fill="#232323" d="M 233.5,497.5 C 235.912,497.244 237.579,498.244 238.5,500.5C 236.167,501.833 233.833,501.833 231.5,500.5C 232.193,499.482 232.859,498.482 233.5,497.5 Z"/></g>
<g><path style="opacity:1" fill="#939499" d="M 463.5,495.5 C 469.814,494.641 472.481,497.308 471.5,503.5C 468.428,503.183 465.428,503.516 462.5,504.5C 462.977,505.478 463.643,506.311 464.5,507C 466.936,506.947 469.269,507.113 471.5,507.5C 467.358,510.407 463.524,510.074 460,506.5C 458.663,501.872 459.83,498.205 463.5,495.5 Z"/></g>
<g><path style="opacity:1" fill="#232323" d="M 464.5,497.5 C 466.912,497.244 468.579,498.244 469.5,500.5C 467.167,501.833 464.833,501.833 462.5,500.5C 463.193,499.482 463.859,498.482 464.5,497.5 Z"/></g>
<g><path style="opacity:1" fill="#8f8f95" d="M 474.5,495.5 C 475.675,495.281 476.675,495.614 477.5,496.5C 478.667,499.5 479.833,502.5 481,505.5C 482.167,502.5 483.333,499.5 484.5,496.5C 485.5,495.167 486.5,495.167 487.5,496.5C 485.731,500.644 484.064,504.81 482.5,509C 481.216,509.684 480.049,509.517 479,508.5C 477.486,504.146 475.986,499.812 474.5,495.5 Z"/></g>
<g><path style="opacity:1" fill="#96979c" d="M 339.5,495.5 C 346.799,494.371 349.965,497.371 349,504.5C 345.771,510.261 341.771,510.927 337,506.5C 335.812,502.259 336.645,498.592 339.5,495.5 Z"/></g>
<g><path style="opacity:1" fill="#272728" d="M 340.5,497.5 C 345.989,497.504 347.822,500.171 346,505.5C 343.667,508.167 341.333,508.167 339,505.5C 338.109,502.502 338.609,499.836 340.5,497.5 Z"/></g>
<g><path style="opacity:1" fill="#7b7b7b" d="M 118.5,491.5 C 127.13,491.628 129.964,495.961 127,504.5C 124.6,508.689 121.1,510.023 116.5,508.5C 118.862,507.729 121.196,506.895 123.5,506C 124.337,504.989 124.67,503.822 124.5,502.5C 115.064,502.872 113.064,499.205 118.5,491.5 Z"/></g>
<g><path style="opacity:1" fill="#202020" d="M 119.5,493.5 C 121.144,493.286 122.644,493.62 124,494.5C 124.495,496.473 124.662,498.473 124.5,500.5C 118.753,501.129 117.086,498.795 119.5,493.5 Z"/></g>
<g><path style="opacity:1" fill="#828c94" d="M 85.5,555.5 C 90.5,555.5 95.5,555.5 100.5,555.5C 117.058,576.792 138.724,589.958 165.5,595C 182.949,598.939 200.616,601.272 218.5,602C 299.167,604 379.833,604 460.5,602C 486.565,601.187 511.898,596.52 536.5,588C 553.569,581.094 567.569,570.26 578.5,555.5C 583.5,555.5 588.5,555.5 593.5,555.5C 581.421,573.072 565.755,586.572 546.5,596C 520.45,605.954 493.45,611.287 465.5,612C 423.511,613.096 381.511,613.596 339.5,613.5C 297.489,613.596 255.489,613.096 213.5,612C 193.897,611.288 174.564,608.622 155.5,604C 125.936,596.568 102.603,580.402 85.5,555.5 Z"/></g>
<g><path style="opacity:1" fill="#7c858d" d="M 100.5,555.5 C 105.5,555.5 110.5,555.5 115.5,555.5C 129.449,570.149 146.449,579.649 166.5,584C 184.212,588.561 202.212,591.228 220.5,592C 299.833,594 379.167,594 458.5,592C 489.093,591.35 518.093,584.35 545.5,571C 551.987,566.342 557.987,561.176 563.5,555.5C 568.5,555.5 573.5,555.5 578.5,555.5C 567.569,570.26 553.569,581.094 536.5,588C 511.898,596.52 486.565,601.187 460.5,602C 379.833,604 299.167,604 218.5,602C 200.616,601.272 182.949,598.939 165.5,595C 138.724,589.958 117.058,576.792 100.5,555.5 Z"/></g>
<g><path style="opacity:1" fill="#757e86" d="M 115.5,555.5 C 123.5,555.5 131.5,555.5 139.5,555.5C 148.506,562.128 158.506,566.962 169.5,570C 195.43,576.467 221.763,579.467 248.5,579C 309.167,579.667 369.833,579.667 430.5,579C 457.237,579.467 483.57,576.467 509.5,570C 520.494,566.962 530.494,562.128 539.5,555.5C 547.5,555.5 555.5,555.5 563.5,555.5C 557.987,561.176 551.987,566.342 545.5,571C 518.093,584.35 489.093,591.35 458.5,592C 379.167,594 299.833,594 220.5,592C 202.212,591.228 184.212,588.561 166.5,584C 146.449,579.649 129.449,570.149 115.5,555.5 Z"/></g>
<g><path style="opacity:1" fill="#707980" d="M 139.5,555.5 C 146.5,555.5 153.5,555.5 160.5,555.5C 177.972,562.951 196.306,567.451 215.5,569C 228.82,569.933 242.153,570.599 255.5,571C 311.5,571.667 367.5,571.667 423.5,571C 451.318,571.485 478.652,568.152 505.5,561C 510.154,559.666 514.487,557.833 518.5,555.5C 525.5,555.5 532.5,555.5 539.5,555.5C 530.494,562.128 520.494,566.962 509.5,570C 483.57,576.467 457.237,579.467 430.5,579C 369.833,579.667 309.167,579.667 248.5,579C 221.763,579.467 195.43,576.467 169.5,570C 158.506,566.962 148.506,562.128 139.5,555.5 Z"/></g>
<g><path style="opacity:1" fill="#6b737a" d="M 160.5,555.5 C 279.833,555.5 399.167,555.5 518.5,555.5C 514.487,557.833 510.154,559.666 505.5,561C 478.652,568.152 451.318,571.485 423.5,571C 367.5,571.667 311.5,571.667 255.5,571C 242.153,570.599 228.82,569.933 215.5,569C 196.306,567.451 177.972,562.951 160.5,555.5 Z"/></g>
</svg>
